<?xml version="1.0" encoding="iso-8859-1"?>
<!-- Generator: Adobe Illustrator 15.1.0, SVG Export Plug-In . SVG Version: 6.00 Build 0)  -->
<!DOCTYPE svg PUBLIC "-//W3C//DTD SVG 1.1//EN" "http://www.w3.org/Graphics/SVG/1.1/DTD/svg11.dtd">
<svg version="1.1" id="Layer_1" xmlns="http://www.w3.org/2000/svg" xmlns:xlink="http://www.w3.org/1999/xlink" x="0px" y="0px"
	 width="141.732px" height="141.732px" viewBox="0 0 141.732 141.732" style="enable-background:new 0 0 141.732 141.732;"
	 xml:space="preserve">
<path style="fill:#7B2216;" d="M20.8,20.75C34.666,6.917,51.399,0,71,0c19.633,0,36.366,6.917,50.199,20.75
	C135.066,34.617,142,51.367,142,71c0,17.867-5.768,33.35-17.301,46.45l-3.449,3.7h-0.051c-6.8,6.833-14.3,11.983-22.5,15.45
	C90.166,140.2,80.933,142,71,142c-9.934,0-19.134-1.801-27.601-5.4c-8.267-3.467-15.8-8.617-22.6-15.45l-3.5-3.7
	C5.767,104.35,0,88.867,0,71C0,51.367,6.933,34.617,20.8,20.75"/>
<path style="fill:#D03527;" d="M46.1,130.15c-7.434-3.134-14.217-7.783-20.35-13.95l-3.2-3.399C12.183,101.034,7,87.1,7,71
	c0-17.7,6.25-32.8,18.75-45.3C38.25,13.233,53.333,7,71,7c17.699,0,32.783,6.233,45.25,18.7C128.75,38.2,135,53.3,135,71
	c0,16.1-5.184,30.034-15.551,41.8l-3.199,3.399c-6.134,6.167-12.9,10.816-20.301,13.95c-1.333-3.3-3.35-6.3-6.05-9
	c-5.2-5.2-11.5-7.8-18.899-7.8c-7.4,0-13.717,2.6-18.95,7.8C49.35,123.85,47.366,126.85,46.1,130.15"/>
<path style="fill:#FFCD05;" d="M46.1,130.15c1.267-3.3,3.25-6.3,5.95-9c5.233-5.2,11.55-7.8,18.95-7.8
	c7.399,0,13.699,2.6,18.899,7.8c2.7,2.7,4.717,5.7,6.05,9C88.283,133.383,79.966,135,71,135C62.033,135,53.732,133.383,46.1,130.15"
	/>
<path style="fill:#BA2E26;" d="M85.449,25.05c2.601,4.5,4.15,8.716,4.65,12.65c0.6,3.9-0.017,6.367-1.85,7.4
	c-1.834,1.066-4.317,0.383-7.45-2.05c-3.067-2.434-5.9-5.9-8.5-10.4l-0.9-1.55c-1.066-2.133-1.467-4.3-1.2-6.5
	c0.267-2.434,1.317-4.184,3.15-5.25c1.833-1.033,3.883-1.066,6.15-0.1c2,0.867,3.666,2.3,5,4.3L85.449,25.05"/>
<path style="fill:#BA2E26;" d="M65.75,32.75c-1.7,3-3.601,5.3-5.7,6.9c-2.033,1.634-3.65,2.083-4.851,1.35
	c-1.199-0.667-1.616-2.3-1.25-4.9c0.367-2.6,1.4-5.383,3.101-8.35l0.6-1.05c0.9-1.333,2.017-2.284,3.351-2.85
	c1.5-0.667,2.85-0.65,4.05,0.05c1.2,0.733,1.899,1.917,2.1,3.55c0.167,1.4-0.1,2.816-0.8,4.25L65.75,32.75"/>
<path style="fill:#FFFFFF;" d="M61.1,74.5L61,75.1c-2.367,8.733-6.134,15.717-11.301,20.95c-5.133,5.233-10.166,7.167-15.1,5.8
	c-4.967-1.334-8.4-5.533-10.3-12.6c-1.867-7.134-1.617-15.066,0.75-23.8l0.1-0.55c1.4-4.767,4.267-8.383,8.601-10.85
	c4.433-2.6,9.149-3.25,14.149-1.95c4.934,1.367,8.7,4.267,11.3,8.7C61.666,65.167,62.3,69.733,61.1,74.5 M117.149,65.45
	c2.367,8.734,2.617,16.667,0.75,23.8c-1.866,7.066-5.283,11.266-10.25,12.6c-4.967,1.367-10.017-0.566-15.149-5.8
	c-5.134-5.233-8.9-12.217-11.301-20.95l-0.05-0.6c-1.2-4.767-0.583-9.334,1.851-13.7c2.6-4.434,6.383-7.333,11.35-8.7
	c4.967-1.3,9.667-0.65,14.1,1.95c4.334,2.466,7.2,6.083,8.601,10.85L117.149,65.45"/>
<path style="fill:#333333;" d="M54,71.7v0.15v0.45c-0.167,1.533-0.95,2.85-2.351,3.95c-1.566,1.232-3.45,1.85-5.649,1.85
	c-2.2,0-4.084-0.617-5.65-1.85c-1.4-1.101-2.167-2.417-2.3-3.95L38,71.85V71.7v-0.1c0.033-3,0.816-5.55,2.35-7.65
	c1.566-2.167,3.45-3.25,5.65-3.25c2.199,0,4.083,1.083,5.649,3.25c1.533,2.1,2.316,4.65,2.351,7.65V71.7 M104.399,71.7v0.15v0.45
	c-0.133,1.533-0.917,2.85-2.35,3.95c-1.567,1.232-3.45,1.85-5.65,1.85s-4.083-0.617-5.649-1.85c-1.4-1.101-2.167-2.417-2.301-3.95
	l-0.05-0.45V71.7v-0.1c0.033-3,0.816-5.55,2.351-7.65c1.566-2.167,3.449-3.25,5.649-3.25s4.083,1.083,5.65,3.25
	c1.566,2.1,2.35,4.65,2.35,7.65V71.7"/>
<path style="fill:#6B97CF;" d="M53.149,99.8l-0.1-0.851L52.949,97V87.15c0-1.566,0.184-3.066,0.551-4.5l0.25-0.85l0.05-0.15
	c0.833-2.667,2.3-5.05,4.399-7.149c3.567-3.534,7.851-5.3,12.851-5.3s9.25,1.767,12.75,5.3c2.133,2.1,3.616,4.482,4.45,7.149
	l0.05,0.15l0.2,0.85c0.399,1.434,0.6,2.934,0.6,4.5V97L89,98.95L88.899,99.8C77,102.833,65.083,102.833,53.149,99.8"/>
<path style="fill:#497ABD;" d="M53.149,99.8c11.934,3.033,23.851,3.033,35.75,0c-0.566,3.8-2.267,7.116-5.1,9.95
	c-3.5,3.533-7.75,5.3-12.75,5.3s-9.283-1.767-12.851-5.3C55.366,106.917,53.683,103.6,53.149,99.8"/>
</svg>
